# xmcd
#
# Track frame offsets:
#	150
#	15055
#	30939
#	47236
#	65186
#	78330
#	88834
#	104615
#	121391
#	135445
#	149338
#	167324
#	181963
#	201398
#	219339
#	236530
#	251980
#
# Disc length: 3597
#
# Revision: 2
# Processed by: cddbd v1.5.1PL0 Copyright (c) Steve Scherf et al.
# Submitted via: audiograbber 1.82.00
# Normalized: r1:DSETVAR1
#
DISCID=e80e0b11
DTITLE=Various Artist - CDX Volume 331
DYEAR=2003
DGENRE=Country
TTITLE0=Martina McBRIDE - In my daughter's eyes
TTITLE1=Colt PRATHER - Not a brick out of place
TTITLE2=Carolyn Dawn JOHNSON - Simple life
TTITLE3=Gary ALLAN - Songs about rain
TTITLE4=Mark WILLS - That's a woman
TTITLE5=Marty STUART - Too much month (at th end of the money)
TTITLE6=Chad BROCK - You are
TTITLE7=Tony BRANTLEY - Brown-eyed giirl
TTITLE8=Corinne - I've never been there like this
TTITLE9=Mickey UTLEY - When you're lovin' right
TTITLE10=Ashley GEARING - Ribbons of love
TTITLE11=Randy TRAVIS - The gift
TTITLE12=Anthony Michael JAMES - Heores for Christmas
TTITLE13=Mitchell JOHN - These cows don't know it's Christmas
TTITLE14=Jason HOWARD - The reunion (of Johnny and June)
TTITLE15=The 16th Avenue Bait 'N' Tackle Choir - Happy holidays (merry Christmas from Dixie)
TTITLE16=Kacey JONES - Here's lookin' at you...naked
EXTD=
EXTT0=
EXTT1=
EXTT2=
EXTT3=
EXTT4=
EXTT5=
EXTT6=
EXTT7=
EXTT8=
EXTT9=
EXTT10=
EXTT11=
EXTT12=
EXTT13=
EXTT14=
EXTT15=
EXTT16=
PLAYORDER=
